HIERARCHY
ROOT reference
{
  OFFSET 0 0 0
  CHANNELS 6 Xposition Yposition Zposition Zrotation Xrotation Yrotation
  JOINT Hips
  {
    OFFSET 387.421 88.6843 214.036
    CHANNELS 3 Zrotation Xrotation Yrotation
    JOINT RightUpLeg
    {
      OFFSET -9.26407 -1.54033 -0.0169218
      CHANNELS 3 Zrotation Xrotation Yrotation
      JOINT RightLeg
      {
        OFFSET 0.0262756 -41.889 0.0389421
        CHANNELS 3 Zrotation Xrotation Yrotation
        JOINT RightFoot
        {
          OFFSET -0.025595 -42.7244 0.117519
          CHANNELS 3 Zrotation Xrotation Yrotation
          End Site
          {
            OFFSET 0 -7.69 17.5
          }
        }
      }
    }
    JOINT LeftUpLeg
    {
      OFFSET 9.28488 -1.63184 0.00456132
      CHANNELS 3 Zrotation Xrotation Yrotation
      JOINT LeftLeg
      {
        OFFSET -0.00133996 -41.8929 0.0117795
        CHANNELS 3 Zrotation Xrotation Yrotation
        JOINT LeftFoot
        {
          OFFSET 0.253805 -40.8902 0.809143
          CHANNELS 3 Zrotation Xrotation Yrotation
          End Site
          {
            OFFSET 0 -7.69 17.5
          }
        }
      }
    }
    JOINT Spine
    {
      OFFSET 0.04218 14.2944 0.0529257
      CHANNELS 3 Zrotation Xrotation Yrotation
      JOINT Spine1
      {
        OFFSET 0.022284 9.72228 0.00997239
        CHANNELS 3 Zrotation Xrotation Yrotation
        JOINT Spine2
        {
          OFFSET 0.0397412 10.1199 -0.0103674
          CHANNELS 3 Zrotation Xrotation Yrotation
          JOINT Spine3
          {
            OFFSET 0.0389473 9.71765 -0.00772733
            CHANNELS 3 Zrotation Xrotation Yrotation
            JOINT Neck
            {
              OFFSET 0.0437972 10.3765 0.0320322
              CHANNELS 3 Zrotation Xrotation Yrotation
              JOINT Head
              {
                OFFSET 0.0431994 9.46781 0.0291763
                CHANNELS 3 Zrotation Xrotation Yrotation
                End Site
                {
                  OFFSET 0 15.95 0
                }
              }
            }
            JOINT RightShoulder
            {
              OFFSET -3.17206 6.93005 0.0018626
              CHANNELS 3 Zrotation Xrotation Yrotation
              JOINT RightArm
              {
                OFFSET -12.781 0.0116363 0.0199633
                CHANNELS 3 Zrotation Xrotation Yrotation
                JOINT RightForeArm
                {
                  OFFSET -26.5135 -0.0113607 0.0486864
                  CHANNELS 3 Zrotation Xrotation Yrotation
                  JOINT RightHand
                  {
                    OFFSET -25.9857 -0.0984063 0.163753
                    CHANNELS 3 Zrotation Xrotation Yrotation
                    JOINT RightHandThumb1
                    {
                      OFFSET -2.48905 0.190105 3.12053
                      CHANNELS 3 Zrotation Xrotation Yrotation
                      JOINT RightHandThumb2
                      {
                        OFFSET -3.68274 0 0
                        CHANNELS 3 Zrotation Xrotation Yrotation
                        JOINT RightHandThumb3
                        {
                          OFFSET -2.55832 0 0
                          CHANNELS 3 Zrotation Xrotation Yrotation
                          End Site
                          {
                            OFFSET -2.194 0 0
                          }
                        }
                      }
                    }
                    JOINT RightInHandIndex
                    {
                      OFFSET -3.22368 0.508421 1.97842
                      CHANNELS 3 Zrotation Xrotation Yrotation
                      JOINT RightHandIndex1
                      {
                        OFFSET -5.21684 -0.091368 0.999158
                        CHANNELS 3 Zrotation Xrotation Yrotation
                        JOINT RightHandIndex2
                        {
                          OFFSET -3.61937 0 0
                          CHANNELS 3 Zrotation Xrotation Yrotation
                          JOINT RightHandIndex3
                          {
                            OFFSET -2.0521 0 0
                            CHANNELS 3 Zrotation Xrotation Yrotation
                            End Site
                            {
                              OFFSET -1.805 0 0
                            }
                          }
                        }
                      }
                    }
                    JOINT RightInHandMiddle
                    {
                      OFFSET -3.38211 0.517263 0.756737
                      CHANNELS 3 Zrotation Xrotation Yrotation
                      JOINT RightHandMiddle1
                      {
                        OFFSET -5.17411 -0.084 0.313895
                        CHANNELS 3 Zrotation Xrotation Yrotation
                        JOINT RightHandMiddle2
                        {
                          OFFSET -3.94947 0 0
                          CHANNELS 3 Zrotation Xrotation Yrotation
                          JOINT RightHandMiddle3
                          {
                            OFFSET -2.47579 0 0
                            CHANNELS 3 Zrotation Xrotation Yrotation
                            End Site
                            {
                              OFFSET -1.975 0 0
                            }
                          }
                        }
                      }
                    }
                    JOINT RightInHandRing
                    {
                      OFFSET -3.36516 0.537895 -0.128947
                      CHANNELS 3 Zrotation Xrotation Yrotation
                      JOINT RightHandRing1
                      {
                        OFFSET -4.63474 -0.022105 -0.478947
                        CHANNELS 3 Zrotation Xrotation Yrotation
                        JOINT RightHandRing2
                        {
                          OFFSET -3.44238 0 0
                          CHANNELS 3 Zrotation Xrotation Yrotation
                          JOINT RightHandRing3
                          {
                            OFFSET -2.3881 0 0
                            CHANNELS 3 Zrotation Xrotation Yrotation
                            End Site
                            {
                              OFFSET -1.857 0 0
                            }
                          }
                        }
                      }
                    }
                    JOINT RightInHandPinky
                    {
                      OFFSET -3.16105 0.469368 -1.20179
                      CHANNELS 3 Zrotation Xrotation Yrotation
                      JOINT RightHandPinky1
                      {
                        OFFSET -4.14105 -0.022105 -1.09053
                        CHANNELS 3 Zrotation Xrotation Yrotation
                        JOINT RightHandPinky2
                        {
                          OFFSET -2.75653 0 0
                          CHANNELS 3 Zrotation Xrotation Yrotation
                          JOINT RightHandPinky3
                          {
                            OFFSET -1.74189 0 0
                            CHANNELS 3 Zrotation Xrotation Yrotation
                            End Site
                            {
                              OFFSET -1.645 0 0
                            }
                          }
                        }
                      }
                    }
                  }
                }
              }
            }
            JOINT LeftShoulder
            {
              OFFSET 3.23848 6.90919 -0.0119143
              CHANNELS 3 Zrotation Xrotation Yrotation
              JOINT LeftArm
              {
                OFFSET 12.8241 -0.0554782 -0.0520121
                CHANNELS 3 Zrotation Xrotation Yrotation
                JOINT LeftForeArm
                {
                  OFFSET 26.4865 -0.0658343 -0.0244543
                  CHANNELS 3 Zrotation Xrotation Yrotation
                  JOINT LeftHand
                  {
                    OFFSET 25.985 -0.0475988 -0.0124738
                    CHANNELS 3 Zrotation Xrotation Yrotation
                    JOINT LeftHandThumb1
                    {
                      OFFSET 2.48905 0.190105 3.12053
                      CHANNELS 3 Zrotation Xrotation Yrotation
                      JOINT LeftHandThumb2
                      {
                        OFFSET 3.68274 0 0
                        CHANNELS 3 Zrotation Xrotation Yrotation
                        JOINT LeftHandThumb3
                        {
                          OFFSET 2.55832 0 0
                          CHANNELS 3 Zrotation Xrotation Yrotation
                          End Site
                          {
                            OFFSET 2.194 0 0
                          }
                        }
                      }
                    }
                    JOINT LeftInHandIndex
                    {
                      OFFSET 3.22368 0.508421 1.97842
                      CHANNELS 3 Zrotation Xrotation Yrotation
                      JOINT LeftHandIndex1
                      {
                        OFFSET 5.21684 -0.091368 0.999158
                        CHANNELS 3 Zrotation Xrotation Yrotation
                        JOINT LeftHandIndex2
                        {
                          OFFSET 3.61937 0 0
                          CHANNELS 3 Zrotation Xrotation Yrotation
                          JOINT LeftHandIndex3
                          {
                            OFFSET 2.0521 0 0
                            CHANNELS 3 Zrotation Xrotation Yrotation
                            End Site
                            {
                              OFFSET 1.805 0 0
                            }
                          }
                        }
                      }
                    }
                    JOINT LeftInHandMiddle
                    {
                      OFFSET 3.38211 0.517263 0.756737
                      CHANNELS 3 Zrotation Xrotation Yrotation
                      JOINT LeftHandMiddle1
                      {
                        OFFSET 5.17411 -0.084 0.313895
                        CHANNELS 3 Zrotation Xrotation Yrotation
                        JOINT LeftHandMiddle2
                        {
                          OFFSET 3.94947 0 0
                          CHANNELS 3 Zrotation Xrotation Yrotation
                          JOINT LeftHandMiddle3
                          {
                            OFFSET 2.47579 0 0
                            CHANNELS 3 Zrotation Xrotation Yrotation
                            End Site
                            {
                              OFFSET 1.975 0 0
                            }
                          }
                        }
                      }
                    }
                    JOINT LeftInHandRing
                    {
                      OFFSET 3.36516 0.537895 -0.128947
                      CHANNELS 3 Zrotation Xrotation Yrotation
                      JOINT LeftHandRing1
                      {
                        OFFSET 4.63474 -0.022105 -0.478947
                        CHANNELS 3 Zrotation Xrotation Yrotation
                        JOINT LeftHandRing2
                        {
                          OFFSET 3.44238 0 0
                          CHANNELS 3 Zrotation Xrotation Yrotation
                          JOINT LeftHandRing3
                          {
                            OFFSET 2.3881 0 0
                            CHANNELS 3 Zrotation Xrotation Yrotation
                            End Site
                            {
                              OFFSET 1.857 0 0
                            }
                          }
                        }
                      }
                    }
                    JOINT LeftInHandPinky
                    {
                      OFFSET 3.16105 0.469368 -1.20179
                      CHANNELS 3 Zrotation Xrotation Yrotation
                      JOINT LeftHandPinky1
                      {
                        OFFSET 4.14105 -0.022105 -1.09053
                        CHANNELS 3 Zrotation Xrotation Yrotation
                        JOINT LeftHandPinky2
                        {
                          OFFSET 2.75653 0 0
                          CHANNELS 3 Zrotation Xrotation Yrotation
                          JOINT LeftHandPinky3
                          {
                            OFFSET 1.74189 0 0
                            CHANNELS 3 Zrotation Xrotation Yrotation
                            End Site
                            {
                              OFFSET 1.645 0 0
                            }
                          }
                        }
                      }
                    }
                  }
                }
              }
            }
          }
        }
      }
    }
  }
}
MOTION
Frames: 2
Frame Time: 0.00833333
6.000000000000000000e+02 0.000000000000000000e+00 0.000000000000000000e+00 0.000000000000000000e+00 0.000000000000000000e+00 0.000000000000000000e+00 -1.876620022061414206e+00 1.745982686461205358e+00 7.474133165753126029e+00 -4.608952238405796820e+00 -5.216068459481553177e-01 -6.111145057756947274e+00 1.008470264328400479e+00 1.498985668129251048e+00 -1.323915257011337943e+00 -1.317431935974991308e+00 -1.115314667249751590e+00 -3.197939216612052604e+00 -4.327431149511206776e+00 -2.828900906796705250e+00 -3.732353448638334736e+00 4.717731197039635838e+00 -2.424608676145083019e-01 -4.033451558312877161e+00 -1.266192382733850597e+00 1.694454119484543053e+00 -3.649371491600334583e+00 7.099922500930371250e-01 1.632228975026648321e+00 -7.484035581499145495e-01 1.500032870072116331e-01 3.899487808342089190e-01 -1.588824267406871715e-01 2.631222768846443461e-01 6.272376817834923735e-01 -1.794383675436977132e-01 1.940557018403576278e-02 3.293128146118738404e-04 -2.580802988236762241e-01 -1.925666459807691966e-01 4.752976265735869288e-01 -1.358472437635651175e+00 6.391714407107826901e-01 -1.832812906794853758e+00 -4.532997022638883600e+00 -3.443052500845787400e-01 -3.109500483569994089e-01 7.592326897956140908e-01 6.044438068459837332e+00 3.056158082365920237e+00 -2.785633449892849223e-01 4.497697098165986063e+00 -5.614554756476367814e+00 -5.273763150894555274e+00 -2.260915831683045774e+00 -8.137081856406826574e+00 3.192363381515857523e-01 0.000000000000000000e+00 0.000000000000000000e+00 0.000000000000000000e+00 -1.257490562928077683e-15 9.154740620149555822e-16 0.000000000000000000e+00 1.677622316719820125e-15 3.692235717010449293e-15 0.000000000000000000e+00 6.933830397422908993e-15 1.424444191317055311e-15 -1.320969928962871265e-16 0.000000000000000000e+00 0.000000000000000000e+00 0.000000000000000000e+00 0.000000000000000000e+00 -1.520845072867424935e-15 1.190641943052595172e-14 0.000000000000000000e+00 -1.769176312222722649e-15 7.022200029282475384e-15 6.933830397422908993e-15 1.424444191317055311e-15 -1.320969928962871265e-16 0.000000000000000000e+00 -2.679863668110715460e-15 -9.325680882439051371e-16 0.000000000000000000e+00 1.625419222365533960e-15 -2.901915511309045398e-16 0.000000000000000000e+00 8.184730081850519537e-17 5.224495972401106749e-15 6.933830397422908993e-15 1.424444191317055311e-15 -1.320969928962871265e-16 0.000000000000000000e+00 0.000000000000000000e+00 0.000000000000000000e+00 0.000000000000000000e+00 7.041635035904574849e-15 4.282319822972246067e-14 0.000000000000000000e+00 3.320349198492382830e-15 -1.833220628812332655e-16 6.933830397422908993e-15 1.424444191317055311e-15 -1.320969928962871265e-16 0.000000000000000000e+00 0.000000000000000000e+00 0.000000000000000000e+00 0.000000000000000000e+00 -9.435629530767190044e-16 1.544711023769965894e-14 0.000000000000000000e+00 3.092849835768132980e-15 -3.484544241239155768e-15 2.262256551745593924e+00 1.087842058477672236e+00 9.249280321123451998e-01 9.612054615479285191e-01 1.996518560767567729e+00 1.109941551255826830e+00 -3.385604473673589077e+00 -9.321685460048315663e-01 1.039438964916765862e+01 -1.321882878326350097e+00 -1.599323120050050173e-01 2.431944703317620249e+00 0.000000000000000000e+00 0.000000000000000000e+00 0.000000000000000000e+00 1.048418119825309738e-16 -3.581083722145489680e-16 0.000000000000000000e+00 8.418627442806399451e-16 3.668684055737855079e-15 0.000000000000000000e+00 1.688393700863610735e-15 -3.041583027301606867e-15 2.682931403164307398e-15 0.000000000000000000e+00 0.000000000000000000e+00 0.000000000000000000e+00 0.000000000000000000e+00 2.897356697596294290e-15 -6.856699927062681530e-15 0.000000000000000000e+00 -3.727863867614842655e-15 1.103933843749008472e-15 1.688393700863610735e-15 -3.041583027301606867e-15 2.682931403164307398e-15 0.000000000000000000e+00 7.570942242156173305e-15 -6.944632406513137534e-15 0.000000000000000000e+00 -1.452198754637056179e-15 -3.014958574148708492e-15 0.000000000000000000e+00 -4.203958151112730233e-15 -8.339509646012012265e-16 1.688393700863610735e-15 -3.041583027301606867e-15 2.682931403164307398e-15 0.000000000000000000e+00 0.000000000000000000e+00 0.000000000000000000e+00 0.000000000000000000e+00 -4.320656070248836115e-15 -2.848008876514360612e-15 0.000000000000000000e+00 -2.999252587641396909e-15 3.049813545527320683e-15 1.688393700863610735e-15 -3.041583027301606867e-15 2.682931403164307398e-15 0.000000000000000000e+00 0.000000000000000000e+00 0.000000000000000000e+00 0.000000000000000000e+00 -3.664487109293761467e-15 2.409606469418755024e-15 0.000000000000000000e+00 -9.358034133329883227e-16 7.793234872267302733e-16
6.000000000000000000e+02 0.000000000000000000e+00 0.000000000000000000e+00 0.000000000000000000e+00 0.000000000000000000e+00 0.000000000000000000e+00 -2.032107172905680770e+00 1.706461404101837331e+00 7.688329862386311220e+00 -4.787713047981803527e+00 -4.312276813982848789e-01 -6.310270233110754745e+00 1.048221936896558626e+00 1.534576704986832185e+00 -1.345385606551231517e+00 -1.445948154869082236e+00 -1.094448054196307973e+00 -3.253596251986625276e+00 -4.527942299499743584e+00 -2.743148042367237860e+00 -3.897611595306922805e+00 4.784117548106219253e+00 -3.442404734754413997e-01 -4.073326452714378654e+00 -1.291173196057303407e+00 1.761788389328849291e+00 -3.761809612141069792e+00 7.029113971291791607e-01 1.731993868396447533e+00 -6.683752980351966855e-01 1.487478949504118797e-01 4.068564620143120814e-01 -1.365221568636868776e-01 2.614082310562425571e-01 6.508169907693149847e-01 -1.395119002012947806e-01 1.889929249750361973e-02 5.609806424057942574e-03 -2.733188584852739855e-01 -2.173602669365785889e-01 4.962384574844506124e-01 -1.274849816684277659e+00 6.601617488992244098e-01 -1.809200606631877095e+00 -4.927590302612297357e+00 -4.183755047414391970e-01 -2.682818475400425284e-01 6.888438095015420037e-01 6.288769109404397817e+00 3.251344387162334648e+00 -7.481068779663635482e-02 4.717038488178007860e+00 -5.686494800799130722e+00 -5.751029801327941726e+00 -2.362909616205004504e+00 -8.816417033034580797e+00 4.912140813966853203e-01 0.000000000000000000e+00 0.000000000000000000e+00 0.000000000000000000e+00 -1.143527904696013484e-15 5.508450253542928900e-16 0.000000000000000000e+00 2.024989128339793270e-15 3.893839196941203996e-15 0.000000000000000000e+00 6.810664428620762009e-15 1.607721667322440542e-15 -1.671749540941817714e-16 0.000000000000000000e+00 0.000000000000000000e+00 0.000000000000000000e+00 0.000000000000000000e+00 -1.101498511718040171e-15 1.277946367301070709e-14 0.000000000000000000e+00 -1.643309100537298328e-15 7.419172027350690173e-15 6.810664428620762009e-15 1.607721667322440542e-15 -1.671749540941817714e-16 0.000000000000000000e+00 -2.807333730956851519e-15 -1.231003887543225609e-15 0.000000000000000000e+00 1.813693000691489384e-15 3.137744652284930221e-16 0.000000000000000000e+00 3.380507507782233168e-16 5.303537910105119437e-15 6.810664428620762009e-15 1.607721667322440542e-15 -1.671749540941817714e-16 0.000000000000000000e+00 0.000000000000000000e+00 0.000000000000000000e+00 0.000000000000000000e+00 7.329799515899149374e-15 4.476117614987729234e-14 0.000000000000000000e+00 3.569698646819763912e-15 -3.544013605312408262e-16 6.810664428620762009e-15 1.607721667322440542e-15 -1.671749540941817714e-16 0.000000000000000000e+00 0.000000000000000000e+00 0.000000000000000000e+00 0.000000000000000000e+00 -6.883682485405247918e-16 1.600862597716779440e-14 0.000000000000000000e+00 3.425393138578229738e-15 -3.318808491442929009e-15 2.364934253010584797e+00 1.081331771570372746e+00 9.338568935365528789e-01 9.422267033906569500e-01 2.183704697988522181e+00 1.253754224553611074e+00 -4.597284222452434399e+00 -1.127200404880257745e+00 9.757200176083543397e+00 -1.415563620097958664e+00 -1.517352379133490858e-01 2.337434049313067863e+00 0.000000000000000000e+00 0.000000000000000000e+00 0.000000000000000000e+00 5.571280390520048475e-16 -1.220686154503300312e-16 0.000000000000000000e+00 6.824042741506349667e-16 3.612607579942906771e-15 0.000000000000000000e+00 1.635246984907155851e-15 -2.941500435031770281e-15 2.260061882244433466e-15 0.000000000000000000e+00 0.000000000000000000e+00 0.000000000000000000e+00 0.000000000000000000e+00 2.880013868635984283e-15 -7.066482258123143699e-15 0.000000000000000000e+00 -3.721921112751731567e-15 1.228585896126734036e-15 1.635246984907155851e-15 -2.941500435031770281e-15 2.260061882244433466e-15 0.000000000000000000e+00 7.657662223554293536e-15 -7.553424171417280536e-15 0.000000000000000000e+00 -2.023594497267027870e-15 -3.167767727147640499e-15 0.000000000000000000e+00 -4.077887930250270128e-15 -9.504320914652866118e-16 1.635246984907155851e-15 -2.941500435031770281e-15 2.260061882244433466e-15 0.000000000000000000e+00 0.000000000000000000e+00 0.000000000000000000e+00 0.000000000000000000e+00 -4.464760055058564627e-15 -3.002221547048470433e-15 0.000000000000000000e+00 -2.854962352416998936e-15 3.197232365011643643e-15 1.635246984907155851e-15 -2.941500435031770281e-15 2.260061882244433466e-15 0.000000000000000000e+00 0.000000000000000000e+00 0.000000000000000000e+00 0.000000000000000000e+00 -3.815520326338588156e-15 2.659344569683368888e-15 0.000000000000000000e+00 -1.252745876313131598e-15 8.133589380138485726e-16
